                   Fantastic Four duology (2005, 2007) 1080p multi [mkvonly]

Blu-ray source:   http://thepiratebay.org/torrent/6613777/Fantastic_Four_duology_%282005___2007%29_BD50_1080p_AVC_MPEG-4_multi

############################################################################
############################################################################

Audio (muxed in mkv-s) English DTS 1500 KB/s.

Optional Audio Tracks are AAC ~200+ trancoded from 5.1 DD & DTS (LFE mixed in)

Use MPC (  http://cccp-project.net/  ) to automatically recognize & play
the external Audio tracks or mux the Audio in MKV with  mkvmerge 
(  http://www.videohelp.com/tools/MKVtoolnix  ) if you wish to use other player.

############################################################################
############################################################################

Fantastic Four (2005) [mkvonly]

Format                           : Matroska
File size                        : 5.02 GiB
Duration                         : 1h 45mn
Overall bit rate                 : 6.8 MB/s

Video
Format/Info                      : AVC/Advanced Video Codec
Bit rate                         : 5.3 MB/s
Display aspect ratio             : 1920 x 816 (2.35:1)
Frame rate                       : 23.976 fps
Stream size                      : 3.80 GiB (76%)
Title                            : Fantastic Four (2005) 1080p multi [mkvonly]
Writing library                  : x264 core 112
Encoding settings                : very high

Audio  ENGLIDH DTS 1500 KB/s, 1.11 GiB (22%)

Optional demuxed (separate) audios:
Cze, Chi, Spa, Fre, Hun, Por (Brasilian I guess), Rus, Tha, Tur

SUBTITLES (*= VobSubs in separate RAR):
English, *Arabic, *Bulgarian, *Chinese(3), Croatian, Czech, Danish, Dutch, Estonian,
 Finnish, German, *Greek, *Hebrew, Hungarian, Icelandic, Indonesian, Italian, Korean,
 Latvian, Lithuanian, Norwegian, Persian, Phil (Tagalog), Polish, Portuguese Br & Ib,
 Romanian, *Russian, Slovenian, Spanish Lat Am, Swedish, *Thai, Turkish, Vietnamese

############################################################################
############################################################################

4 Rise of the Silver Surfer (2007) [mkvonly]

Format                           : Matroska
File size                        : 4.37 GiB
Duration                         : 1h 31mn
Overall bit rate                 : 6.8 MB/s

Video
Format/Info                      : AVC/Advanced Video Codec
Bit rate                         : 5.3 MB/s
Display aspect ratio             : 1920 x 800 (2.40:1)
Frame rate                       : 23.976 fps
Stream size                      : 3.31 GiB (76%)
Title                            : 4 Rise of the Silver Surfer (2007) 1080p multi [mkvonly]
Writing library                  : x264 core 112
Encoding settings                : very high

AUDIO ENGLISH DTS 1500 KB/s, 992 MiB (22%)

Optional demuxed (separate) audios:
Chi, Spa, Fre, Hun, Por (Brasilian I guess), Rus, Tha, Tur, Ukr

SUBTITLES (*= VobSubs in separate RAR):
English, Arabic, *Bulgarian, *Chinese(3), Croatian, Czech, Danish, Dutch, Estonian,
Finnish, German, Greek, Hebrew, Hungarian, Indonesian, Italian, *Kazakh, *Korean, Latvian,
 Lithuanian, Norwegian, Persian, Phil (Tagalog), Polish, Portuguese Br & Ib, Romanian, 
*Russian, Serbian, Slovenian, Spanish Lat Am, Swedish, *Thai, Turkish, *Ukrainian, Vietnamese

~~~~~~~~~~~~~~~~~~~~~~~~~~~~~~~~~~~~~~~~~~~~~~~~~~~~~~~~~~~~~~~~~~~~~~~~~~~~
############################################################################
~~~~~~~~~~~~~~~~~~~~~~~~~~~~~~~~~~~~~~~~~~~~~~~~~~~~~~~~~~~~~~~~~~~~~~~~~~~~
You want more of this practically lossless quality in smallest size possible?
Then check out my torrents:   http://thepiratebay.org/user/mkvonly/

Feel free to upload my torrents to other trackers but please don't rename them. 
Leave the [mkvonly] in the title. Thanks.
If you upload them re-muxed please mention it in description 
"Re-muxed from Fantastic Four duology (2005, 2007) 1080p multi [mkvonly]"

~~~~~~~~~~~~~~~~~~~~~~~~~~~~~~~~~~~~~~~~~~~~~~~~~~~~~~~~~~~~~~~~~~~~~~~~~~~~
############################################################################
~~~~~~~~~~~~~~~~~~~~~~~~~~~~~~~~~~~~~~~~~~~~~~~~~~~~~~~~~~~~~~~~~~~~~~~~~~~~